<svg xmlns="http://www.w3.org/2000/svg" xmlns:xlink="http://www.w3.org/1999/xlink" width="168" height="40" viewBox="0 0 168 40"><symbol id="a" viewBox="0 -40 168 40"><g fill="#666"><path d="M69.833-19.172c0-2.573-.573-4.64-1.72-6.202-1.146-1.562-2.747-2.342-4.802-2.342-1.057 0-1.98.16-2.77.482s-1.474.81-2.054 1.463v-8.11h-2.88v23.315h2.49l.233-1.93c.58.736 1.275 1.294 2.085 1.673.81.378 1.76.568 2.848.568 2.106 0 3.728-.768 4.864-2.303 1.136-1.536 1.704-3.632 1.704-6.288v-.327zm-2.88.327c0 1.806-.38 3.28-1.136 4.428-.758 1.146-1.894 1.72-3.408 1.72-.944 0-1.736-.205-2.374-.615-.64-.41-1.155-.98-1.55-1.705v-8.046c.405-.737.924-1.305 1.558-1.705.633-.4 1.432-.6 2.396-.6 1.494 0 2.62.577 3.377 1.728.757 1.152 1.136 2.64 1.136 4.467v.328zM72.33-18.83c0 2.522.687 4.582 2.06 6.18 1.376 1.597 3.235 2.396 5.58 2.396 2.366 0 4.24-.796 5.62-2.39 1.38-1.59 2.07-3.654 2.07-6.186v-.343c0-2.532-.69-4.588-2.063-6.17-1.375-1.583-3.24-2.374-5.595-2.374-2.356 0-4.224.79-5.604 2.374-1.38 1.582-2.07 3.64-2.07 6.17v.344zm2.895-.342c0-1.805.407-3.29 1.222-4.45s2-1.744 3.557-1.744c1.536 0 2.715.58 3.54 1.743s1.238 2.646 1.238 4.45v.344c0 1.786-.416 3.267-1.246 4.444s-2.018 1.767-3.563 1.767c-1.536 0-2.71-.588-3.525-1.766s-1.222-2.66-1.222-4.443v-.342zM93.54-27.405h-2.88v24.28h2.88v-24.28zM102.787-21.755l.28-1.074 3.968 12.265h3.223l-6.77-19.44c-.427-1.14-1.023-2.126-1.79-2.957-.77-.83-1.838-1.245-3.207-1.245-.197 0-.42.023-.668.07-.25.046-.565.106-.95.18l.016 2.334c.072-.01.197-.023.374-.04.176-.015.306-.022.39-.022.975 0 1.698.205 2.17.615.473.41.896 1.15 1.27 2.218l.684 2.04-5.867 16.248h3.205l3.672-11.19zM115.106-10.565l.172-1.93c.59.726 1.302 1.282 2.132 1.666.83.385 1.8.577 2.91.577 1.12 0 2.09-.24 2.903-.724.814-.482 1.45-1.222 1.906-2.218.59.924 1.332 1.645 2.225 2.164.893.518 1.94.777 3.145.777 1.753 0 3.13-.578 4.132-1.735 1.002-1.157 1.502-2.93 1.502-5.316v-10.1h-2.88v10.13c0 1.682-.306 2.865-.918 3.55-.612.685-1.505 1.027-2.677 1.027-1.143 0-2.047-.376-2.718-1.128-.67-.752-1.06-1.7-1.175-2.84v-10.74h-2.896v10.164c0 1.597-.307 2.754-.924 3.47-.618.716-1.508 1.074-2.67 1.074-1.007 0-1.82-.21-2.443-.63-.623-.42-1.1-1.015-1.432-1.782v-12.295h-2.88v16.84h2.586zM146.476-27.716c-2.365 0-4.243.747-5.634 2.24s-2.085 3.46-2.085 5.9v.654c0 2.667.716 4.778 2.147 6.334s3.17 2.334 5.214 2.334c2.345 0 4.085-.747 5.222-2.24 1.136-1.495 1.704-3.503 1.704-6.024v-1.292h-11.408c.03-1.63.492-2.962 1.386-4 .893-1.038 2.096-1.556 3.61-1.556.976 0 1.815.19 2.522.576.706.384 1.344.95 1.915 1.696l1.757-1.37c-.644-.976-1.473-1.762-2.49-2.358-1.018-.595-2.305-.894-3.86-.894zm-.358 15.097c-1.193 0-2.177-.414-2.95-1.244-.77-.83-1.252-2.024-1.438-3.58h8.436v.218c-.094 1.317-.45 2.415-1.074 3.292-.623.876-1.614 1.315-2.974 1.315zM164.25-13.148c-.26.032-.492.057-.7.078-.208.02-.446.03-.716.03-.976 0-1.78-.21-2.412-.63-.634-.42-1.11-1.014-1.433-1.78v-11.954h-2.88v16.84h2.66l.157-1.898c.478.705 1.05 1.25 1.72 1.634.67.384 1.444.576 2.327.576.197 0 .43-.026.7-.078.27-.052.46-.1.575-.14v-2.678z"/></g><path fill="#303F9F" d="M12.092-20l-3.97-6.875 3.97-6.875 3.97 6.875z"/><path fill="#3F51B5" d="M35.908-6.25l-3.97-6.875L35.908-20l3.97 6.875z"/><path fill="#7986CB" d="M39.877-13.125L27.97-33.75h7.938L43.848-20z"/><path fill="#FF4081" d="M27.97-6.25L12.09-33.75h7.94l15.876 27.5z"/><path fill="#536DFE" d="M12.092-6.25L4.152-20l3.97-6.875L20.033-6.25z"/><path fill="#fff" fill-opacity=".2" d="M27.97-6.25l3.968-6.875 3.97 6.875z"/><path fill="#fff" fill-opacity=".1" d="M24-13.125l3.97 6.875 3.968-6.875z"/><path fill="#fff" fill-opacity="0" d="M24-13.125L27.97-20l3.968 6.875z"/><path fill-opacity=".1" d="M20.03-20L24-13.125 27.97-20z"/><path fill-opacity=".2" d="M20.03-20L24-26.875 27.97-20z"/><path fill-opacity=".3" d="M16.062-26.875L20.032-20 24-26.875z"/><path fill-opacity=".4" d="M16.062-26.875l3.97-6.875L24-26.875z"/><path fill-opacity=".5" d="M12.092-33.75l3.97 6.875 3.97-6.875z"/><path fill="#fff" fill-opacity=".2" d="M12.092-6.25l3.97-6.875 3.97 6.875z"/><path fill="#fff" fill-opacity=".1" d="M8.123-13.125l3.97 6.875 3.97-6.875z"/><path fill="#fff" fill-opacity="0" d="M8.123-13.125L12.093-20l3.97 6.875z"/><path fill-opacity=".1" d="M4.153-20l3.97 6.875L12.093-20z"/><path fill-opacity=".2" d="M4.153-20l3.97-6.875L12.093-20z"/><path fill="#fff" fill-opacity="0" d="M16.062-26.875L12.092-20l-3.97-6.875z"/><path fill-opacity=".2" d="M16.062-26.875l-3.97-6.875-3.97 6.875zM39.877-13.125l-3.97 6.875-3.97-6.875z"/><path fill="#fff" fill-opacity="0" d="M39.877-13.125L35.907-20l-3.97 6.875z"/><path fill="#fff" fill-opacity=".2" d="M35.908-20l3.97 6.875L43.847-20z"/><path fill="#fff" fill-opacity=".1" d="M35.908-20l3.97-6.875L43.847-20z"/><path fill="#fff" fill-opacity="0" d="M31.938-26.875L35.908-20l3.97-6.875z"/><path fill-opacity=".1" d="M31.938-26.875l3.97-6.875 3.97 6.875z"/><path fill-opacity=".2" d="M27.97-33.75l3.968 6.875 3.97-6.875z"/><path fill="none" d="M44-40H4V0h40zM168-40H0V0h168z"/></symbol><use xlink:href="#a" width="168" height="40" y="-40" transform="scale(1 -1)" overflow="visible"/></svg>